<svg xmlns="http://www.w3.org/2000/svg" version="1.1" xmlns:xlink="http://www.w3.org/1999/xlink" xmlns:svgjs="http://svgjs.dev/svgjs" width="960" height="1080" preserveAspectRatio="none" viewBox="0 0 960 1080"><g mask="url(&quot;#SvgjsMask1014&quot;)" fill="none"><rect width="960" height="1080" x="0" y="0" fill="#0e2a47"></rect><path d="M-97.26 756.56L-97.26 756.56" stroke="#132e65" stroke-width="1.5"></path><path d="M-97.26 756.56L-67.99 859.75" stroke="#132e65" stroke-width="1.5"></path><path d="M-97.26 756.56L82.17 724.39" stroke="#132e65" stroke-width="1.5"></path><path d="M-97.26 756.56L87.95 852.52" stroke="#132e65" stroke-width="1.5"></path><path d="M-97.26 756.56L-56.91 1034.41" stroke="#132e65" stroke-width="1.5"></path><path d="M-67.99 859.75L-67.99 859.75" stroke="#132e65" stroke-width="1.5"></path><path d="M-67.99 859.75L87.95 852.52" stroke="#132e65" stroke-width="1.5"></path><path d="M-67.99 859.75L-56.91 1034.41" stroke="#132e65" stroke-width="1.5"></path><path d="M-56.91 1034.41L-56.91 1034.41" stroke="#132e65" stroke-width="1.5"></path><path d="M-56.91 1034.41L54.27 1023.47" stroke="#132e65" stroke-width="1.5"></path><path d="M-56.91 1034.41L-66.77 1177.31" stroke="#132e65" stroke-width="1.5"></path><path d="M-56.91 1034.41L61.85 1129.03" stroke="#132e65" stroke-width="1.5"></path><path d="M-66.77 1177.31L-66.77 1177.31" stroke="#132e65" stroke-width="1.5"></path><path d="M-66.77 1177.31L61.85 1129.03" stroke="#132e65" stroke-width="1.5"></path><path d="M-66.77 1177.31L54.27 1023.47" stroke="#132e65" stroke-width="1.5"></path><path d="M-66.77 1177.31L178.01 1118.02" stroke="#132e65" stroke-width="1.5"></path><path d="M82.17 724.39L82.17 724.39" stroke="#132e65" stroke-width="1.5"></path><path d="M82.17 724.39L199.17 767.84" stroke="#132e65" stroke-width="1.5"></path><path d="M82.17 724.39L87.95 852.52" stroke="#132e65" stroke-width="1.5"></path><path d="M82.17 724.39L-67.99 859.75" stroke="#132e65" stroke-width="1.5"></path><path d="M87.95 852.52L87.95 852.52" stroke="#132e65" stroke-width="1.5"></path><path d="M87.95 852.52L199.17 767.84" stroke="#132e65" stroke-width="1.5"></path><path d="M54.27 1023.47L54.27 1023.47" stroke="#132e65" stroke-width="1.5"></path><path d="M54.27 1023.47L61.85 1129.03" stroke="#132e65" stroke-width="1.5"></path><path d="M54.27 1023.47L207.15 1003.17" stroke="#132e65" stroke-width="1.5"></path><path d="M54.27 1023.47L178.01 1118.02" stroke="#132e65" stroke-width="1.5"></path><path d="M54.27 1023.47L87.95 852.52" stroke="#132e65" stroke-width="1.5"></path><path d="M61.85 1129.03L61.85 1129.03" stroke="#132e65" stroke-width="1.5"></path><path d="M61.85 1129.03L178.01 1118.02" stroke="#132e65" stroke-width="1.5"></path><path d="M199.17 767.84L199.17 767.84" stroke="#132e65" stroke-width="1.5"></path><path d="M199.17 767.84L305.53 722.78" stroke="#132e65" stroke-width="1.5"></path><path d="M207.15 1003.17L207.15 1003.17" stroke="#132e65" stroke-width="1.5"></path><path d="M207.15 1003.17L178.01 1118.02" stroke="#132e65" stroke-width="1.5"></path><path d="M207.15 1003.17L339.5 901.68" stroke="#132e65" stroke-width="1.5"></path><path d="M207.15 1003.17L87.95 852.52" stroke="#132e65" stroke-width="1.5"></path><path d="M207.15 1003.17L61.85 1129.03" stroke="#132e65" stroke-width="1.5"></path><path d="M178.01 1118.02L178.01 1118.02" stroke="#132e65" stroke-width="1.5"></path><path d="M178.01 1118.02L323.58 1171.83" stroke="#132e65" stroke-width="1.5"></path><path d="M314.43 580.21L314.43 580.21" stroke="#132e65" stroke-width="1.5"></path><path d="M314.43 580.21L305.53 722.78" stroke="#132e65" stroke-width="1.5"></path><path d="M314.43 580.21L454.46 638.71" stroke="#132e65" stroke-width="1.5"></path><path d="M314.43 580.21L199.17 767.84" stroke="#132e65" stroke-width="1.5"></path><path d="M305.53 722.78L305.53 722.78" stroke="#132e65" stroke-width="1.5"></path><path d="M305.53 722.78L454.46 638.71" stroke="#132e65" stroke-width="1.5"></path><path d="M339.5 901.68L339.5 901.68" stroke="#132e65" stroke-width="1.5"></path><path d="M339.5 901.68L465.62 864.54" stroke="#132e65" stroke-width="1.5"></path><path d="M339.5 901.68L461.82 1010.17" stroke="#132e65" stroke-width="1.5"></path><path d="M339.5 901.68L305.53 722.78" stroke="#132e65" stroke-width="1.5"></path><path d="M339.5 901.68L199.17 767.84" stroke="#132e65" stroke-width="1.5"></path><path d="M339.5 901.68L483.63 760.44" stroke="#132e65" stroke-width="1.5"></path><path d="M323.58 1171.83L323.58 1171.83" stroke="#132e65" stroke-width="1.5"></path><path d="M323.58 1171.83L490.56 1165.72" stroke="#132e65" stroke-width="1.5"></path><path d="M323.58 1171.83L207.15 1003.17" stroke="#132e65" stroke-width="1.5"></path><path d="M494.66 341.98L494.66 341.98" stroke="#132e65" stroke-width="1.5"></path><path d="M494.66 341.98L602.07 330.14" stroke="#132e65" stroke-width="1.5"></path><path d="M494.66 341.98L630.07 229.11" stroke="#132e65" stroke-width="1.5"></path><path d="M494.66 341.98L610.77 486.58" stroke="#132e65" stroke-width="1.5"></path><path d="M454.46 638.71L454.46 638.71" stroke="#132e65" stroke-width="1.5"></path><path d="M454.46 638.71L483.63 760.44" stroke="#132e65" stroke-width="1.5"></path><path d="M454.46 638.71L580.89 637.11" stroke="#132e65" stroke-width="1.5"></path><path d="M483.63 760.44L483.63 760.44" stroke="#132e65" stroke-width="1.5"></path><path d="M483.63 760.44L465.62 864.54" stroke="#132e65" stroke-width="1.5"></path><path d="M483.63 760.44L582.39 715.81" stroke="#132e65" stroke-width="1.5"></path><path d="M483.63 760.44L580.89 637.11" stroke="#132e65" stroke-width="1.5"></path><path d="M483.63 760.44L305.53 722.78" stroke="#132e65" stroke-width="1.5"></path><path d="M483.63 760.44L610.35 902.28" stroke="#132e65" stroke-width="1.5"></path><path d="M465.62 864.54L465.62 864.54" stroke="#132e65" stroke-width="1.5"></path><path d="M465.62 864.54L461.82 1010.17" stroke="#132e65" stroke-width="1.5"></path><path d="M461.82 1010.17L461.82 1010.17" stroke="#132e65" stroke-width="1.5"></path><path d="M461.82 1010.17L600 1019.18" stroke="#132e65" stroke-width="1.5"></path><path d="M461.82 1010.17L490.56 1165.72" stroke="#132e65" stroke-width="1.5"></path><path d="M490.56 1165.72L490.56 1165.72" stroke="#132e65" stroke-width="1.5"></path><path d="M490.56 1165.72L599.34 1129.73" stroke="#132e65" stroke-width="1.5"></path><path d="M490.56 1165.72L600 1019.18" stroke="#132e65" stroke-width="1.5"></path><path d="M490.56 1165.72L610.35 902.28" stroke="#132e65" stroke-width="1.5"></path><path d="M610.45 -99.34L610.45 -99.34" stroke="#132e65" stroke-width="1.5"></path><path d="M610.45 -99.34L738.79 -86.05" stroke="#132e65" stroke-width="1.5"></path><path d="M610.45 -99.34L576.7 39.04" stroke="#132e65" stroke-width="1.5"></path><path d="M610.45 -99.34L737.2 82.09" stroke="#132e65" stroke-width="1.5"></path><path d="M610.45 -99.34L875.22 -85.01" stroke="#132e65" stroke-width="1.5"></path><path d="M610.45 -99.34L630.07 229.11" stroke="#132e65" stroke-width="1.5"></path><path d="M610.45 -99.34L904.88 48.46" stroke="#132e65" stroke-width="1.5"></path><path d="M576.7 39.04L576.7 39.04" stroke="#132e65" stroke-width="1.5"></path><path d="M576.7 39.04L737.2 82.09" stroke="#132e65" stroke-width="1.5"></path><path d="M576.7 39.04L630.07 229.11" stroke="#132e65" stroke-width="1.5"></path><path d="M576.7 39.04L738.79 -86.05" stroke="#132e65" stroke-width="1.5"></path><path d="M576.7 39.04L771.58 192.73" stroke="#132e65" stroke-width="1.5"></path><path d="M576.7 39.04L602.07 330.14" stroke="#132e65" stroke-width="1.5"></path><path d="M630.07 229.11L630.07 229.11" stroke="#132e65" stroke-width="1.5"></path><path d="M630.07 229.11L602.07 330.14" stroke="#132e65" stroke-width="1.5"></path><path d="M630.07 229.11L730.36 319.86" stroke="#132e65" stroke-width="1.5"></path><path d="M630.07 229.11L771.58 192.73" stroke="#132e65" stroke-width="1.5"></path><path d="M602.07 330.14L602.07 330.14" stroke="#132e65" stroke-width="1.5"></path><path d="M602.07 330.14L730.36 319.86" stroke="#132e65" stroke-width="1.5"></path><path d="M602.07 330.14L610.77 486.58" stroke="#132e65" stroke-width="1.5"></path><path d="M610.77 486.58L610.77 486.58" stroke="#132e65" stroke-width="1.5"></path><path d="M610.77 486.58L731.4 503.8" stroke="#132e65" stroke-width="1.5"></path><path d="M610.77 486.58L580.89 637.11" stroke="#132e65" stroke-width="1.5"></path><path d="M610.77 486.58L742.81 585.16" stroke="#132e65" stroke-width="1.5"></path><path d="M610.77 486.58L730.36 319.86" stroke="#132e65" stroke-width="1.5"></path><path d="M580.89 637.11L580.89 637.11" stroke="#132e65" stroke-width="1.5"></path><path d="M580.89 637.11L582.39 715.81" stroke="#132e65" stroke-width="1.5"></path><path d="M582.39 715.81L582.39 715.81" stroke="#132e65" stroke-width="1.5"></path><path d="M582.39 715.81L454.46 638.71" stroke="#132e65" stroke-width="1.5"></path><path d="M582.39 715.81L731.33 747.93" stroke="#132e65" stroke-width="1.5"></path><path d="M582.39 715.81L610.35 902.28" stroke="#132e65" stroke-width="1.5"></path><path d="M582.39 715.81L465.62 864.54" stroke="#132e65" stroke-width="1.5"></path><path d="M610.35 902.28L610.35 902.28" stroke="#132e65" stroke-width="1.5"></path><path d="M610.35 902.28L600 1019.18" stroke="#132e65" stroke-width="1.5"></path><path d="M600 1019.18L600 1019.18" stroke="#132e65" stroke-width="1.5"></path><path d="M600 1019.18L599.34 1129.73" stroke="#132e65" stroke-width="1.5"></path><path d="M600 1019.18L766.98 1042.2" stroke="#132e65" stroke-width="1.5"></path><path d="M600 1019.18L741.91 905.22" stroke="#132e65" stroke-width="1.5"></path><path d="M599.34 1129.73L599.34 1129.73" stroke="#132e65" stroke-width="1.5"></path><path d="M599.34 1129.73L461.82 1010.17" stroke="#132e65" stroke-width="1.5"></path><path d="M738.79 -86.05L738.79 -86.05" stroke="#132e65" stroke-width="1.5"></path><path d="M738.79 -86.05L875.22 -85.01" stroke="#132e65" stroke-width="1.5"></path><path d="M738.79 -86.05L737.2 82.09" stroke="#132e65" stroke-width="1.5"></path><path d="M737.2 82.09L737.2 82.09" stroke="#132e65" stroke-width="1.5"></path><path d="M737.2 82.09L771.58 192.73" stroke="#132e65" stroke-width="1.5"></path><path d="M737.2 82.09L858.67 176.68" stroke="#132e65" stroke-width="1.5"></path><path d="M737.2 82.09L904.88 48.46" stroke="#132e65" stroke-width="1.5"></path><path d="M771.58 192.73L771.58 192.73" stroke="#132e65" stroke-width="1.5"></path><path d="M771.58 192.73L858.67 176.68" stroke="#132e65" stroke-width="1.5"></path><path d="M771.58 192.73L730.36 319.86" stroke="#132e65" stroke-width="1.5"></path><path d="M771.58 192.73L860.68 332.68" stroke="#132e65" stroke-width="1.5"></path><path d="M771.58 192.73L904.88 48.46" stroke="#132e65" stroke-width="1.5"></path><path d="M730.36 319.86L730.36 319.86" stroke="#132e65" stroke-width="1.5"></path><path d="M730.36 319.86L860.68 332.68" stroke="#132e65" stroke-width="1.5"></path><path d="M731.4 503.8L731.4 503.8" stroke="#132e65" stroke-width="1.5"></path><path d="M731.4 503.8L742.81 585.16" stroke="#132e65" stroke-width="1.5"></path><path d="M731.4 503.8L856.34 442.14" stroke="#132e65" stroke-width="1.5"></path><path d="M731.4 503.8L730.36 319.86" stroke="#132e65" stroke-width="1.5"></path><path d="M731.4 503.8L877.51 626.49" stroke="#132e65" stroke-width="1.5"></path><path d="M742.81 585.16L742.81 585.16" stroke="#132e65" stroke-width="1.5"></path><path d="M742.81 585.16L877.51 626.49" stroke="#132e65" stroke-width="1.5"></path><path d="M742.81 585.16L731.33 747.93" stroke="#132e65" stroke-width="1.5"></path><path d="M731.33 747.93L731.33 747.93" stroke="#132e65" stroke-width="1.5"></path><path d="M731.33 747.93L883.22 749.25" stroke="#132e65" stroke-width="1.5"></path><path d="M731.33 747.93L741.91 905.22" stroke="#132e65" stroke-width="1.5"></path><path d="M731.33 747.93L580.89 637.11" stroke="#132e65" stroke-width="1.5"></path><path d="M731.33 747.93L877.51 626.49" stroke="#132e65" stroke-width="1.5"></path><path d="M741.91 905.22L741.91 905.22" stroke="#132e65" stroke-width="1.5"></path><path d="M741.91 905.22L610.35 902.28" stroke="#132e65" stroke-width="1.5"></path><path d="M741.91 905.22L766.98 1042.2" stroke="#132e65" stroke-width="1.5"></path><path d="M741.91 905.22L888.34 874.97" stroke="#132e65" stroke-width="1.5"></path><path d="M766.98 1042.2L766.98 1042.2" stroke="#132e65" stroke-width="1.5"></path><path d="M766.98 1042.2L882.74 998.65" stroke="#132e65" stroke-width="1.5"></path><path d="M875.22 -85.01L875.22 -85.01" stroke="#132e65" stroke-width="1.5"></path><path d="M875.22 -85.01L992.95 -86.07" stroke="#132e65" stroke-width="1.5"></path><path d="M875.22 -85.01L904.88 48.46" stroke="#132e65" stroke-width="1.5"></path><path d="M875.22 -85.01L984.48 81.73" stroke="#132e65" stroke-width="1.5"></path><path d="M875.22 -85.01L737.2 82.09" stroke="#132e65" stroke-width="1.5"></path><path d="M875.22 -85.01L858.67 176.68" stroke="#132e65" stroke-width="1.5"></path><path d="M904.88 48.46L904.88 48.46" stroke="#132e65" stroke-width="1.5"></path><path d="M904.88 48.46L984.48 81.73" stroke="#132e65" stroke-width="1.5"></path><path d="M904.88 48.46L858.67 176.68" stroke="#132e65" stroke-width="1.5"></path><path d="M858.67 176.68L858.67 176.68" stroke="#132e65" stroke-width="1.5"></path><path d="M858.67 176.68L860.68 332.68" stroke="#132e65" stroke-width="1.5"></path><path d="M858.67 176.68L984.48 81.73" stroke="#132e65" stroke-width="1.5"></path><path d="M858.67 176.68L1031.55 169.75" stroke="#132e65" stroke-width="1.5"></path><path d="M860.68 332.68L860.68 332.68" stroke="#132e65" stroke-width="1.5"></path><path d="M860.68 332.68L856.34 442.14" stroke="#132e65" stroke-width="1.5"></path><path d="M856.34 442.14L856.34 442.14" stroke="#132e65" stroke-width="1.5"></path><path d="M856.34 442.14L730.36 319.86" stroke="#132e65" stroke-width="1.5"></path><path d="M856.34 442.14L742.81 585.16" stroke="#132e65" stroke-width="1.5"></path><path d="M856.34 442.14L877.51 626.49" stroke="#132e65" stroke-width="1.5"></path><path d="M856.34 442.14L1044.14 352.17" stroke="#132e65" stroke-width="1.5"></path><path d="M877.51 626.49L877.51 626.49" stroke="#132e65" stroke-width="1.5"></path><path d="M877.51 626.49L984.95 630.52" stroke="#132e65" stroke-width="1.5"></path><path d="M877.51 626.49L883.22 749.25" stroke="#132e65" stroke-width="1.5"></path><path d="M883.22 749.25L883.22 749.25" stroke="#132e65" stroke-width="1.5"></path><path d="M883.22 749.25L987.37 712.98" stroke="#132e65" stroke-width="1.5"></path><path d="M883.22 749.25L888.34 874.97" stroke="#132e65" stroke-width="1.5"></path><path d="M888.34 874.97L888.34 874.97" stroke="#132e65" stroke-width="1.5"></path><path d="M888.34 874.97L882.74 998.65" stroke="#132e65" stroke-width="1.5"></path><path d="M882.74 998.65L882.74 998.65" stroke="#132e65" stroke-width="1.5"></path><path d="M882.74 998.65L1033.14 1004.4" stroke="#132e65" stroke-width="1.5"></path><path d="M882.74 998.65L741.91 905.22" stroke="#132e65" stroke-width="1.5"></path><path d="M882.74 998.65L878.54 1178.98" stroke="#132e65" stroke-width="1.5"></path><path d="M878.54 1178.98L878.54 1178.98" stroke="#132e65" stroke-width="1.5"></path><path d="M878.54 1178.98L766.98 1042.2" stroke="#132e65" stroke-width="1.5"></path><path d="M992.95 -86.07L992.95 -86.07" stroke="#132e65" stroke-width="1.5"></path><path d="M992.95 -86.07L1151.21 -67.42" stroke="#132e65" stroke-width="1.5"></path><path d="M992.95 -86.07L904.88 48.46" stroke="#132e65" stroke-width="1.5"></path><path d="M984.48 81.73L984.48 81.73" stroke="#132e65" stroke-width="1.5"></path><path d="M984.48 81.73L1031.55 169.75" stroke="#132e65" stroke-width="1.5"></path><path d="M984.48 81.73L1134.48 55.86" stroke="#132e65" stroke-width="1.5"></path><path d="M1031.55 169.75L1031.55 169.75" stroke="#132e65" stroke-width="1.5"></path><path d="M1031.55 169.75L1147.02 195.53" stroke="#132e65" stroke-width="1.5"></path><path d="M1031.55 169.75L1134.48 55.86" stroke="#132e65" stroke-width="1.5"></path><path d="M1044.14 352.17L1044.14 352.17" stroke="#132e65" stroke-width="1.5"></path><path d="M1044.14 352.17L1135.03 316.83" stroke="#132e65" stroke-width="1.5"></path><path d="M1044.14 352.17L1145.5 497.12" stroke="#132e65" stroke-width="1.5"></path><path d="M984.95 630.52L984.95 630.52" stroke="#132e65" stroke-width="1.5"></path><path d="M984.95 630.52L987.37 712.98" stroke="#132e65" stroke-width="1.5"></path><path d="M984.95 630.52L1124.7 635.18" stroke="#132e65" stroke-width="1.5"></path><path d="M984.95 630.52L883.22 749.25" stroke="#132e65" stroke-width="1.5"></path><path d="M984.95 630.52L1145.5 497.12" stroke="#132e65" stroke-width="1.5"></path><path d="M987.37 712.98L987.37 712.98" stroke="#132e65" stroke-width="1.5"></path><path d="M1026.77 846.16L1026.77 846.16" stroke="#132e65" stroke-width="1.5"></path><path d="M1026.77 846.16L1121.16 873.31" stroke="#132e65" stroke-width="1.5"></path><path d="M1033.14 1004.4L1033.14 1004.4" stroke="#132e65" stroke-width="1.5"></path><path d="M1033.14 1004.4L1145.14 1007.83" stroke="#132e65" stroke-width="1.5"></path><path d="M1033.14 1004.4L1121.16 873.31" stroke="#132e65" stroke-width="1.5"></path><path d="M1033.14 1004.4L1026.77 846.16" stroke="#132e65" stroke-width="1.5"></path><path d="M1151.21 -67.42L1151.21 -67.42" stroke="#132e65" stroke-width="1.5"></path><path d="M1151.21 -67.42L1134.48 55.86" stroke="#132e65" stroke-width="1.5"></path><path d="M1134.48 55.86L1134.48 55.86" stroke="#132e65" stroke-width="1.5"></path><path d="M1134.48 55.86L1147.02 195.53" stroke="#132e65" stroke-width="1.5"></path><path d="M1147.02 195.53L1147.02 195.53" stroke="#132e65" stroke-width="1.5"></path><path d="M1147.02 195.53L1135.03 316.83" stroke="#132e65" stroke-width="1.5"></path><path d="M1147.02 195.53L1044.14 352.17" stroke="#132e65" stroke-width="1.5"></path><path d="M1147.02 195.53L984.48 81.73" stroke="#132e65" stroke-width="1.5"></path><path d="M1147.02 195.53L1151.21 -67.42" stroke="#132e65" stroke-width="1.5"></path><path d="M1135.03 316.83L1135.03 316.83" stroke="#132e65" stroke-width="1.5"></path><path d="M1135.03 316.83L1031.55 169.75" stroke="#132e65" stroke-width="1.5"></path><path d="M1135.03 316.83L1145.5 497.12" stroke="#132e65" stroke-width="1.5"></path><path d="M1135.03 316.83L1134.48 55.86" stroke="#132e65" stroke-width="1.5"></path><path d="M1145.5 497.12L1145.5 497.12" stroke="#132e65" stroke-width="1.5"></path><path d="M1145.5 497.12L1124.7 635.18" stroke="#132e65" stroke-width="1.5"></path><path d="M1145.5 497.12L1164.01 738.68" stroke="#132e65" stroke-width="1.5"></path><path d="M1145.5 497.12L987.37 712.98" stroke="#132e65" stroke-width="1.5"></path><path d="M1124.7 635.18L1124.7 635.18" stroke="#132e65" stroke-width="1.5"></path><path d="M1124.7 635.18L1164.01 738.68" stroke="#132e65" stroke-width="1.5"></path><path d="M1164.01 738.68L1164.01 738.68" stroke="#132e65" stroke-width="1.5"></path><path d="M1164.01 738.68L1121.16 873.31" stroke="#132e65" stroke-width="1.5"></path><path d="M1164.01 738.68L1026.77 846.16" stroke="#132e65" stroke-width="1.5"></path><path d="M1164.01 738.68L987.37 712.98" stroke="#132e65" stroke-width="1.5"></path><path d="M1164.01 738.68L984.95 630.52" stroke="#132e65" stroke-width="1.5"></path><path d="M1121.16 873.31L1121.16 873.31" stroke="#132e65" stroke-width="1.5"></path><path d="M1121.16 873.31L1145.14 1007.83" stroke="#132e65" stroke-width="1.5"></path><path d="M1145.14 1007.83L1145.14 1007.83" stroke="#132e65" stroke-width="1.5"></path><path d="M1145.14 1007.83L1153.95 1178.7" stroke="#132e65" stroke-width="1.5"></path><path d="M1145.14 1007.83L1026.77 846.16" stroke="#132e65" stroke-width="1.5"></path><path d="M1145.14 1007.83L882.74 998.65" stroke="#132e65" stroke-width="1.5"></path><path d="M1153.95 1178.7L1153.95 1178.7" stroke="#132e65" stroke-width="1.5"></path><path d="M1153.95 1178.7L1033.14 1004.4" stroke="#132e65" stroke-width="1.5"></path><path d="M1153.95 1178.7L878.54 1178.98" stroke="#132e65" stroke-width="1.5"></path><path d="M1153.95 1178.7L1121.16 873.31" stroke="#132e65" stroke-width="1.5"></path><circle r="5" cx="-97.26" cy="756.56" fill="#132e65"></circle><circle r="5" cx="-67.99" cy="859.75" fill="#132e65"></circle><circle r="5" cx="-56.91" cy="1034.41" fill="#132e65"></circle><circle r="5" cx="-66.77" cy="1177.31" fill="#132e65"></circle><circle r="5" cx="82.17" cy="724.39" fill="#132e65"></circle><circle r="5" cx="87.95" cy="852.52" fill="#132e65"></circle><circle r="5" cx="54.27" cy="1023.47" fill="#132e65"></circle><circle r="5" cx="61.85" cy="1129.03" fill="#132e65"></circle><circle r="5" cx="199.17" cy="767.84" fill="#132e65"></circle><circle r="5" cx="207.15" cy="1003.17" fill="#132e65"></circle><circle r="5" cx="178.01" cy="1118.02" fill="#132e65"></circle><circle r="5" cx="314.43" cy="580.21" fill="#132e65"></circle><circle r="5" cx="305.53" cy="722.78" fill="#132e65"></circle><circle r="5" cx="339.5" cy="901.68" fill="#132e65"></circle><circle r="5" cx="323.58" cy="1171.83" fill="#132e65"></circle><circle r="5" cx="494.66" cy="341.98" fill="#132e65"></circle><circle r="5" cx="454.46" cy="638.71" fill="#132e65"></circle><circle r="5" cx="483.63" cy="760.44" fill="#132e65"></circle><circle r="5" cx="465.62" cy="864.54" fill="#132e65"></circle><circle r="5" cx="461.82" cy="1010.17" fill="#132e65"></circle><circle r="5" cx="490.56" cy="1165.72" fill="#132e65"></circle><circle r="5" cx="610.45" cy="-99.34" fill="#132e65"></circle><circle r="5" cx="576.7" cy="39.04" fill="#132e65"></circle><circle r="5" cx="630.07" cy="229.11" fill="#132e65"></circle><circle r="5" cx="602.07" cy="330.14" fill="#132e65"></circle><circle r="5" cx="610.77" cy="486.58" fill="#132e65"></circle><circle r="5" cx="580.89" cy="637.11" fill="#132e65"></circle><circle r="5" cx="582.39" cy="715.81" fill="#132e65"></circle><circle r="5" cx="610.35" cy="902.28" fill="#132e65"></circle><circle r="5" cx="600" cy="1019.18" fill="#132e65"></circle><circle r="5" cx="599.34" cy="1129.73" fill="#132e65"></circle><circle r="5" cx="738.79" cy="-86.05" fill="#132e65"></circle><circle r="5" cx="737.2" cy="82.09" fill="#132e65"></circle><circle r="5" cx="771.58" cy="192.73" fill="#132e65"></circle><circle r="5" cx="730.36" cy="319.86" fill="#132e65"></circle><circle r="5" cx="731.4" cy="503.8" fill="#132e65"></circle><circle r="5" cx="742.81" cy="585.16" fill="#132e65"></circle><circle r="5" cx="731.33" cy="747.93" fill="#132e65"></circle><circle r="5" cx="741.91" cy="905.22" fill="#132e65"></circle><circle r="5" cx="766.98" cy="1042.2" fill="#132e65"></circle><circle r="5" cx="875.22" cy="-85.01" fill="#132e65"></circle><circle r="5" cx="904.88" cy="48.46" fill="#132e65"></circle><circle r="5" cx="858.67" cy="176.68" fill="#132e65"></circle><circle r="5" cx="860.68" cy="332.68" fill="#132e65"></circle><circle r="5" cx="856.34" cy="442.14" fill="#132e65"></circle><circle r="5" cx="877.51" cy="626.49" fill="#132e65"></circle><circle r="5" cx="883.22" cy="749.25" fill="#132e65"></circle><circle r="5" cx="888.34" cy="874.97" fill="#132e65"></circle><circle r="5" cx="882.74" cy="998.65" fill="#132e65"></circle><circle r="5" cx="878.54" cy="1178.98" fill="#132e65"></circle><circle r="5" cx="992.95" cy="-86.07" fill="#132e65"></circle><circle r="5" cx="984.48" cy="81.73" fill="#132e65"></circle><circle r="5" cx="1031.55" cy="169.75" fill="#132e65"></circle><circle r="5" cx="1044.14" cy="352.17" fill="#132e65"></circle><circle r="5" cx="984.95" cy="630.52" fill="#132e65"></circle><circle r="5" cx="987.37" cy="712.98" fill="#132e65"></circle><circle r="5" cx="1026.77" cy="846.16" fill="#132e65"></circle><circle r="5" cx="1033.14" cy="1004.4" fill="#132e65"></circle><circle r="5" cx="1151.21" cy="-67.42" fill="#132e65"></circle><circle r="5" cx="1134.48" cy="55.86" fill="#132e65"></circle><circle r="5" cx="1147.02" cy="195.53" fill="#132e65"></circle><circle r="5" cx="1135.03" cy="316.83" fill="#132e65"></circle><circle r="5" cx="1145.5" cy="497.12" fill="#132e65"></circle><circle r="5" cx="1124.7" cy="635.18" fill="#132e65"></circle><circle r="5" cx="1164.01" cy="738.68" fill="#132e65"></circle><circle r="5" cx="1121.16" cy="873.31" fill="#132e65"></circle><circle r="5" cx="1145.14" cy="1007.83" fill="#132e65"></circle><circle r="5" cx="1153.95" cy="1178.7" fill="#132e65"></circle><path d="M616.54 593.87L616.54 593.87" stroke="hsl(228.5, 77.2%, 51.5%)" stroke-width="1.5"></path><path d="M616.54 593.87L763.38 582.98" stroke="hsl(228.5, 77.2%, 51.5%)" stroke-width="1.5"></path><path d="M616.54 593.87L575.3 775.56" stroke="hsl(228.5, 77.2%, 51.5%)" stroke-width="1.5"></path><path d="M616.54 593.87L760.48 742.7" stroke="hsl(228.5, 77.2%, 51.5%)" stroke-width="1.5"></path><path d="M616.54 593.87L458.49 754.57" stroke="hsl(228.5, 77.2%, 51.5%)" stroke-width="1.5"></path><path d="M616.54 593.87L892.63 582.09" stroke="hsl(228.5, 77.2%, 51.5%)" stroke-width="1.5"></path><path d="M894.88 459.88L894.88 459.88" stroke="hsl(228.5, 77.2%, 51.5%)" stroke-width="1.5"></path><path d="M894.88 459.88L892.63 582.09" stroke="hsl(228.5, 77.2%, 51.5%)" stroke-width="1.5"></path><path d="M1044.56 1117.8L1044.56 1117.8" stroke="hsl(228.5, 77.2%, 51.5%)" stroke-width="1.5"></path><path d="M1044.56 1117.8L1011.57 1046.04" stroke="hsl(228.5, 77.2%, 51.5%)" stroke-width="1.5"></path><path d="M1044.56 1117.8L1178.03 1133.99" stroke="hsl(228.5, 77.2%, 51.5%)" stroke-width="1.5"></path><path d="M1044.56 1117.8L900.85 1132.76" stroke="hsl(228.5, 77.2%, 51.5%)" stroke-width="1.5"></path><path d="M1132.24 584.39L1132.24 584.39" stroke="hsl(228.5, 77.2%, 51.5%)" stroke-width="1.5"></path><path d="M1132.24 584.39L1134.57 490.16" stroke="hsl(228.5, 77.2%, 51.5%)" stroke-width="1.5"></path><path d="M1132.24 584.39L1157.79 714.16" stroke="hsl(228.5, 77.2%, 51.5%)" stroke-width="1.5"></path><path d="M1132.24 584.39L1039.52 486.67" stroke="hsl(228.5, 77.2%, 51.5%)" stroke-width="1.5"></path><path d="M1132.24 584.39L983.13 631.02" stroke="hsl(228.5, 77.2%, 51.5%)" stroke-width="1.5"></path><path d="M1168.19 903.7L1168.19 903.7" stroke="hsl(228.5, 77.2%, 51.5%)" stroke-width="1.5"></path><path d="M1168.19 903.7L1136.39 978.96" stroke="hsl(228.5, 77.2%, 51.5%)" stroke-width="1.5"></path><path d="M1168.19 903.7L1029.93 880.6" stroke="hsl(228.5, 77.2%, 51.5%)" stroke-width="1.5"></path><path d="M1168.19 903.7L1157.79 714.16" stroke="hsl(228.5, 77.2%, 51.5%)" stroke-width="1.5"></path><path d="M1168.19 903.7L1011.57 1046.04" stroke="hsl(228.5, 77.2%, 51.5%)" stroke-width="1.5"></path><path d="M76.11 902.49L76.11 902.49" stroke="hsl(228.5, 77.2%, 51.5%)" stroke-width="1.5"></path><path d="M76.11 902.49L181.14 906.09" stroke="hsl(228.5, 77.2%, 51.5%)" stroke-width="1.5"></path><path d="M76.11 902.49L187.88 1010.97" stroke="hsl(228.5, 77.2%, 51.5%)" stroke-width="1.5"></path><path d="M76.11 902.49L307.14 865.67" stroke="hsl(228.5, 77.2%, 51.5%)" stroke-width="1.5"></path><path d="M76.11 902.49L98.12 1167.18" stroke="hsl(228.5, 77.2%, 51.5%)" stroke-width="1.5"></path><path d="M76.11 902.49L218.77 1153.16" stroke="hsl(228.5, 77.2%, 51.5%)" stroke-width="1.5"></path><path d="M76.11 902.49L355.47 1032.49" stroke="hsl(228.5, 77.2%, 51.5%)" stroke-width="1.5"></path><path d="M98.12 1167.18L98.12 1167.18" stroke="hsl(228.5, 77.2%, 51.5%)" stroke-width="1.5"></path><path d="M98.12 1167.18L218.77 1153.16" stroke="hsl(228.5, 77.2%, 51.5%)" stroke-width="1.5"></path><path d="M98.12 1167.18L187.88 1010.97" stroke="hsl(228.5, 77.2%, 51.5%)" stroke-width="1.5"></path><path d="M98.12 1167.18L363.26 1119.6" stroke="hsl(228.5, 77.2%, 51.5%)" stroke-width="1.5"></path><path d="M98.12 1167.18L181.14 906.09" stroke="hsl(228.5, 77.2%, 51.5%)" stroke-width="1.5"></path><path d="M181.14 906.09L181.14 906.09" stroke="hsl(228.5, 77.2%, 51.5%)" stroke-width="1.5"></path><path d="M181.14 906.09L187.88 1010.97" stroke="hsl(228.5, 77.2%, 51.5%)" stroke-width="1.5"></path><path d="M181.14 906.09L307.14 865.67" stroke="hsl(228.5, 77.2%, 51.5%)" stroke-width="1.5"></path><path d="M181.14 906.09L355.47 1032.49" stroke="hsl(228.5, 77.2%, 51.5%)" stroke-width="1.5"></path><path d="M181.14 906.09L218.77 1153.16" stroke="hsl(228.5, 77.2%, 51.5%)" stroke-width="1.5"></path><path d="M181.14 906.09L449.4 905.75" stroke="hsl(228.5, 77.2%, 51.5%)" stroke-width="1.5"></path><path d="M187.88 1010.97L187.88 1010.97" stroke="hsl(228.5, 77.2%, 51.5%)" stroke-width="1.5"></path><path d="M187.88 1010.97L218.77 1153.16" stroke="hsl(228.5, 77.2%, 51.5%)" stroke-width="1.5"></path><path d="M218.77 1153.16L218.77 1153.16" stroke="hsl(228.5, 77.2%, 51.5%)" stroke-width="1.5"></path><path d="M218.77 1153.16L363.26 1119.6" stroke="hsl(228.5, 77.2%, 51.5%)" stroke-width="1.5"></path><path d="M218.77 1153.16L355.47 1032.49" stroke="hsl(228.5, 77.2%, 51.5%)" stroke-width="1.5"></path><path d="M307.14 865.67L307.14 865.67" stroke="hsl(228.5, 77.2%, 51.5%)" stroke-width="1.5"></path><path d="M307.14 865.67L449.4 905.75" stroke="hsl(228.5, 77.2%, 51.5%)" stroke-width="1.5"></path><path d="M307.14 865.67L355.47 1032.49" stroke="hsl(228.5, 77.2%, 51.5%)" stroke-width="1.5"></path><path d="M307.14 865.67L458.49 754.57" stroke="hsl(228.5, 77.2%, 51.5%)" stroke-width="1.5"></path><path d="M307.14 865.67L187.88 1010.97" stroke="hsl(228.5, 77.2%, 51.5%)" stroke-width="1.5"></path><path d="M307.14 865.67L467.35 1009.21" stroke="hsl(228.5, 77.2%, 51.5%)" stroke-width="1.5"></path><path d="M355.47 1032.49L355.47 1032.49" stroke="hsl(228.5, 77.2%, 51.5%)" stroke-width="1.5"></path><path d="M355.47 1032.49L363.26 1119.6" stroke="hsl(228.5, 77.2%, 51.5%)" stroke-width="1.5"></path><path d="M355.47 1032.49L467.35 1009.21" stroke="hsl(228.5, 77.2%, 51.5%)" stroke-width="1.5"></path><path d="M355.47 1032.49L443.32 1155.17" stroke="hsl(228.5, 77.2%, 51.5%)" stroke-width="1.5"></path><path d="M355.47 1032.49L449.4 905.75" stroke="hsl(228.5, 77.2%, 51.5%)" stroke-width="1.5"></path><path d="M355.47 1032.49L187.88 1010.97" stroke="hsl(228.5, 77.2%, 51.5%)" stroke-width="1.5"></path><path d="M363.26 1119.6L363.26 1119.6" stroke="hsl(228.5, 77.2%, 51.5%)" stroke-width="1.5"></path><path d="M363.26 1119.6L443.32 1155.17" stroke="hsl(228.5, 77.2%, 51.5%)" stroke-width="1.5"></path><path d="M363.26 1119.6L467.35 1009.21" stroke="hsl(228.5, 77.2%, 51.5%)" stroke-width="1.5"></path><path d="M363.26 1119.6L187.88 1010.97" stroke="hsl(228.5, 77.2%, 51.5%)" stroke-width="1.5"></path><path d="M458.49 754.57L458.49 754.57" stroke="hsl(228.5, 77.2%, 51.5%)" stroke-width="1.5"></path><path d="M458.49 754.57L575.3 775.56" stroke="hsl(228.5, 77.2%, 51.5%)" stroke-width="1.5"></path><path d="M449.4 905.75L449.4 905.75" stroke="hsl(228.5, 77.2%, 51.5%)" stroke-width="1.5"></path><path d="M449.4 905.75L467.35 1009.21" stroke="hsl(228.5, 77.2%, 51.5%)" stroke-width="1.5"></path><path d="M449.4 905.75L584.55 890.28" stroke="hsl(228.5, 77.2%, 51.5%)" stroke-width="1.5"></path><path d="M467.35 1009.21L467.35 1009.21" stroke="hsl(228.5, 77.2%, 51.5%)" stroke-width="1.5"></path><path d="M467.35 1009.21L578.76 1030.29" stroke="hsl(228.5, 77.2%, 51.5%)" stroke-width="1.5"></path><path d="M467.35 1009.21L443.32 1155.17" stroke="hsl(228.5, 77.2%, 51.5%)" stroke-width="1.5"></path><path d="M443.32 1155.17L443.32 1155.17" stroke="hsl(228.5, 77.2%, 51.5%)" stroke-width="1.5"></path><path d="M443.32 1155.17L582.33 1124.42" stroke="hsl(228.5, 77.2%, 51.5%)" stroke-width="1.5"></path><path d="M443.32 1155.17L578.76 1030.29" stroke="hsl(228.5, 77.2%, 51.5%)" stroke-width="1.5"></path><path d="M575.3 775.56L575.3 775.56" stroke="hsl(228.5, 77.2%, 51.5%)" stroke-width="1.5"></path><path d="M575.3 775.56L584.55 890.28" stroke="hsl(228.5, 77.2%, 51.5%)" stroke-width="1.5"></path><path d="M575.3 775.56L449.4 905.75" stroke="hsl(228.5, 77.2%, 51.5%)" stroke-width="1.5"></path><path d="M575.3 775.56L760.48 742.7" stroke="hsl(228.5, 77.2%, 51.5%)" stroke-width="1.5"></path><path d="M575.3 775.56L743.41 861.8" stroke="hsl(228.5, 77.2%, 51.5%)" stroke-width="1.5"></path><path d="M584.55 890.28L584.55 890.28" stroke="hsl(228.5, 77.2%, 51.5%)" stroke-width="1.5"></path><path d="M584.55 890.28L578.76 1030.29" stroke="hsl(228.5, 77.2%, 51.5%)" stroke-width="1.5"></path><path d="M578.76 1030.29L578.76 1030.29" stroke="hsl(228.5, 77.2%, 51.5%)" stroke-width="1.5"></path><path d="M578.76 1030.29L582.33 1124.42" stroke="hsl(228.5, 77.2%, 51.5%)" stroke-width="1.5"></path><path d="M578.76 1030.29L718.49 1033.73" stroke="hsl(228.5, 77.2%, 51.5%)" stroke-width="1.5"></path><path d="M578.76 1030.29L449.4 905.75" stroke="hsl(228.5, 77.2%, 51.5%)" stroke-width="1.5"></path><path d="M582.33 1124.42L582.33 1124.42" stroke="hsl(228.5, 77.2%, 51.5%)" stroke-width="1.5"></path><path d="M767.88 218.64L767.88 218.64" stroke="hsl(228.5, 77.2%, 51.5%)" stroke-width="1.5"></path><path d="M767.88 218.64L867 201.91" stroke="hsl(228.5, 77.2%, 51.5%)" stroke-width="1.5"></path><path d="M767.88 218.64L744.6 333.83" stroke="hsl(228.5, 77.2%, 51.5%)" stroke-width="1.5"></path><path d="M767.88 218.64L860.58 325.16" stroke="hsl(228.5, 77.2%, 51.5%)" stroke-width="1.5"></path><path d="M744.6 333.83L744.6 333.83" stroke="hsl(228.5, 77.2%, 51.5%)" stroke-width="1.5"></path><path d="M744.6 333.83L860.58 325.16" stroke="hsl(228.5, 77.2%, 51.5%)" stroke-width="1.5"></path><path d="M744.6 333.83L867 201.91" stroke="hsl(228.5, 77.2%, 51.5%)" stroke-width="1.5"></path><path d="M744.6 333.83L894.88 459.88" stroke="hsl(228.5, 77.2%, 51.5%)" stroke-width="1.5"></path><path d="M763.38 582.98L763.38 582.98" stroke="hsl(228.5, 77.2%, 51.5%)" stroke-width="1.5"></path><path d="M763.38 582.98L892.63 582.09" stroke="hsl(228.5, 77.2%, 51.5%)" stroke-width="1.5"></path><path d="M763.38 582.98L760.48 742.7" stroke="hsl(228.5, 77.2%, 51.5%)" stroke-width="1.5"></path><path d="M763.38 582.98L894.88 459.88" stroke="hsl(228.5, 77.2%, 51.5%)" stroke-width="1.5"></path><path d="M763.38 582.98L909.93 745.44" stroke="hsl(228.5, 77.2%, 51.5%)" stroke-width="1.5"></path><path d="M760.48 742.7L760.48 742.7" stroke="hsl(228.5, 77.2%, 51.5%)" stroke-width="1.5"></path><path d="M760.48 742.7L743.41 861.8" stroke="hsl(228.5, 77.2%, 51.5%)" stroke-width="1.5"></path><path d="M760.48 742.7L862.55 845.19" stroke="hsl(228.5, 77.2%, 51.5%)" stroke-width="1.5"></path><path d="M760.48 742.7L909.93 745.44" stroke="hsl(228.5, 77.2%, 51.5%)" stroke-width="1.5"></path><path d="M743.41 861.8L743.41 861.8" stroke="hsl(228.5, 77.2%, 51.5%)" stroke-width="1.5"></path><path d="M743.41 861.8L862.55 845.19" stroke="hsl(228.5, 77.2%, 51.5%)" stroke-width="1.5"></path><path d="M743.41 861.8L584.55 890.28" stroke="hsl(228.5, 77.2%, 51.5%)" stroke-width="1.5"></path><path d="M743.41 861.8L718.49 1033.73" stroke="hsl(228.5, 77.2%, 51.5%)" stroke-width="1.5"></path><path d="M718.49 1033.73L718.49 1033.73" stroke="hsl(228.5, 77.2%, 51.5%)" stroke-width="1.5"></path><path d="M718.49 1033.73L849.73 1041.6" stroke="hsl(228.5, 77.2%, 51.5%)" stroke-width="1.5"></path><path d="M718.49 1033.73L756.74 1166.91" stroke="hsl(228.5, 77.2%, 51.5%)" stroke-width="1.5"></path><path d="M756.74 1166.91L756.74 1166.91" stroke="hsl(228.5, 77.2%, 51.5%)" stroke-width="1.5"></path><path d="M756.74 1166.91L900.85 1132.76" stroke="hsl(228.5, 77.2%, 51.5%)" stroke-width="1.5"></path><path d="M756.74 1166.91L849.73 1041.6" stroke="hsl(228.5, 77.2%, 51.5%)" stroke-width="1.5"></path><path d="M756.74 1166.91L582.33 1124.42" stroke="hsl(228.5, 77.2%, 51.5%)" stroke-width="1.5"></path><path d="M756.74 1166.91L578.76 1030.29" stroke="hsl(228.5, 77.2%, 51.5%)" stroke-width="1.5"></path><path d="M756.74 1166.91L1011.57 1046.04" stroke="hsl(228.5, 77.2%, 51.5%)" stroke-width="1.5"></path><path d="M846.23 -98.53L846.23 -98.53" stroke="hsl(228.5, 77.2%, 51.5%)" stroke-width="1.5"></path><path d="M846.23 -98.53L1009.59 -45.52" stroke="hsl(228.5, 77.2%, 51.5%)" stroke-width="1.5"></path><path d="M846.23 -98.53L903.67 99.58" stroke="hsl(228.5, 77.2%, 51.5%)" stroke-width="1.5"></path><path d="M846.23 -98.53L979.96 90.3" stroke="hsl(228.5, 77.2%, 51.5%)" stroke-width="1.5"></path><path d="M846.23 -98.53L867 201.91" stroke="hsl(228.5, 77.2%, 51.5%)" stroke-width="1.5"></path><path d="M846.23 -98.53L767.88 218.64" stroke="hsl(228.5, 77.2%, 51.5%)" stroke-width="1.5"></path><path d="M846.23 -98.53L1174.33 -68.81" stroke="hsl(228.5, 77.2%, 51.5%)" stroke-width="1.5"></path><path d="M903.67 99.58L903.67 99.58" stroke="hsl(228.5, 77.2%, 51.5%)" stroke-width="1.5"></path><path d="M903.67 99.58L979.96 90.3" stroke="hsl(228.5, 77.2%, 51.5%)" stroke-width="1.5"></path><path d="M903.67 99.58L867 201.91" stroke="hsl(228.5, 77.2%, 51.5%)" stroke-width="1.5"></path><path d="M903.67 99.58L1016.83 224.74" stroke="hsl(228.5, 77.2%, 51.5%)" stroke-width="1.5"></path><path d="M903.67 99.58L1009.59 -45.52" stroke="hsl(228.5, 77.2%, 51.5%)" stroke-width="1.5"></path><path d="M903.67 99.58L767.88 218.64" stroke="hsl(228.5, 77.2%, 51.5%)" stroke-width="1.5"></path><path d="M867 201.91L867 201.91" stroke="hsl(228.5, 77.2%, 51.5%)" stroke-width="1.5"></path><path d="M867 201.91L860.58 325.16" stroke="hsl(228.5, 77.2%, 51.5%)" stroke-width="1.5"></path><path d="M867 201.91L1016.83 224.74" stroke="hsl(228.5, 77.2%, 51.5%)" stroke-width="1.5"></path><path d="M867 201.91L979.96 90.3" stroke="hsl(228.5, 77.2%, 51.5%)" stroke-width="1.5"></path><path d="M860.58 325.16L860.58 325.16" stroke="hsl(228.5, 77.2%, 51.5%)" stroke-width="1.5"></path><path d="M860.58 325.16L894.88 459.88" stroke="hsl(228.5, 77.2%, 51.5%)" stroke-width="1.5"></path><path d="M860.58 325.16L1016.83 224.74" stroke="hsl(228.5, 77.2%, 51.5%)" stroke-width="1.5"></path><path d="M892.63 582.09L892.63 582.09" stroke="hsl(228.5, 77.2%, 51.5%)" stroke-width="1.5"></path><path d="M892.63 582.09L983.13 631.02" stroke="hsl(228.5, 77.2%, 51.5%)" stroke-width="1.5"></path><path d="M909.93 745.44L909.93 745.44" stroke="hsl(228.5, 77.2%, 51.5%)" stroke-width="1.5"></path><path d="M909.93 745.44L1011.37 713.93" stroke="hsl(228.5, 77.2%, 51.5%)" stroke-width="1.5"></path><path d="M909.93 745.44L862.55 845.19" stroke="hsl(228.5, 77.2%, 51.5%)" stroke-width="1.5"></path><path d="M909.93 745.44L983.13 631.02" stroke="hsl(228.5, 77.2%, 51.5%)" stroke-width="1.5"></path><path d="M862.55 845.19L862.55 845.19" stroke="hsl(228.5, 77.2%, 51.5%)" stroke-width="1.5"></path><path d="M849.73 1041.6L849.73 1041.6" stroke="hsl(228.5, 77.2%, 51.5%)" stroke-width="1.5"></path><path d="M849.73 1041.6L900.85 1132.76" stroke="hsl(228.5, 77.2%, 51.5%)" stroke-width="1.5"></path><path d="M849.73 1041.6L1011.57 1046.04" stroke="hsl(228.5, 77.2%, 51.5%)" stroke-width="1.5"></path><path d="M849.73 1041.6L862.55 845.19" stroke="hsl(228.5, 77.2%, 51.5%)" stroke-width="1.5"></path><path d="M849.73 1041.6L743.41 861.8" stroke="hsl(228.5, 77.2%, 51.5%)" stroke-width="1.5"></path><path d="M900.85 1132.76L900.85 1132.76" stroke="hsl(228.5, 77.2%, 51.5%)" stroke-width="1.5"></path><path d="M900.85 1132.76L1011.57 1046.04" stroke="hsl(228.5, 77.2%, 51.5%)" stroke-width="1.5"></path><path d="M900.85 1132.76L718.49 1033.73" stroke="hsl(228.5, 77.2%, 51.5%)" stroke-width="1.5"></path><path d="M900.85 1132.76L1178.03 1133.99" stroke="hsl(228.5, 77.2%, 51.5%)" stroke-width="1.5"></path><path d="M1009.59 -45.52L1009.59 -45.52" stroke="hsl(228.5, 77.2%, 51.5%)" stroke-width="1.5"></path><path d="M1009.59 -45.52L979.96 90.3" stroke="hsl(228.5, 77.2%, 51.5%)" stroke-width="1.5"></path><path d="M1009.59 -45.52L1174.33 -68.81" stroke="hsl(228.5, 77.2%, 51.5%)" stroke-width="1.5"></path><path d="M979.96 90.3L979.96 90.3" stroke="hsl(228.5, 77.2%, 51.5%)" stroke-width="1.5"></path><path d="M979.96 90.3L1016.83 224.74" stroke="hsl(228.5, 77.2%, 51.5%)" stroke-width="1.5"></path><path d="M1016.83 224.74L1016.83 224.74" stroke="hsl(228.5, 77.2%, 51.5%)" stroke-width="1.5"></path><path d="M1016.83 224.74L1142.25 197.87" stroke="hsl(228.5, 77.2%, 51.5%)" stroke-width="1.5"></path><path d="M1016.83 224.74L1142.31 317.86" stroke="hsl(228.5, 77.2%, 51.5%)" stroke-width="1.5"></path><path d="M1039.52 486.67L1039.52 486.67" stroke="hsl(228.5, 77.2%, 51.5%)" stroke-width="1.5"></path><path d="M1039.52 486.67L1134.57 490.16" stroke="hsl(228.5, 77.2%, 51.5%)" stroke-width="1.5"></path><path d="M1039.52 486.67L894.88 459.88" stroke="hsl(228.5, 77.2%, 51.5%)" stroke-width="1.5"></path><path d="M1039.52 486.67L983.13 631.02" stroke="hsl(228.5, 77.2%, 51.5%)" stroke-width="1.5"></path><path d="M1039.52 486.67L892.63 582.09" stroke="hsl(228.5, 77.2%, 51.5%)" stroke-width="1.5"></path><path d="M1039.52 486.67L1142.31 317.86" stroke="hsl(228.5, 77.2%, 51.5%)" stroke-width="1.5"></path><path d="M983.13 631.02L983.13 631.02" stroke="hsl(228.5, 77.2%, 51.5%)" stroke-width="1.5"></path><path d="M983.13 631.02L1011.37 713.93" stroke="hsl(228.5, 77.2%, 51.5%)" stroke-width="1.5"></path><path d="M1011.37 713.93L1011.37 713.93" stroke="hsl(228.5, 77.2%, 51.5%)" stroke-width="1.5"></path><path d="M1011.37 713.93L1157.79 714.16" stroke="hsl(228.5, 77.2%, 51.5%)" stroke-width="1.5"></path><path d="M1011.37 713.93L1029.93 880.6" stroke="hsl(228.5, 77.2%, 51.5%)" stroke-width="1.5"></path><path d="M1029.93 880.6L1029.93 880.6" stroke="hsl(228.5, 77.2%, 51.5%)" stroke-width="1.5"></path><path d="M1029.93 880.6L1136.39 978.96" stroke="hsl(228.5, 77.2%, 51.5%)" stroke-width="1.5"></path><path d="M1029.93 880.6L1011.57 1046.04" stroke="hsl(228.5, 77.2%, 51.5%)" stroke-width="1.5"></path><path d="M1011.57 1046.04L1011.57 1046.04" stroke="hsl(228.5, 77.2%, 51.5%)" stroke-width="1.5"></path><path d="M1011.57 1046.04L1136.39 978.96" stroke="hsl(228.5, 77.2%, 51.5%)" stroke-width="1.5"></path><path d="M1011.57 1046.04L1178.03 1133.99" stroke="hsl(228.5, 77.2%, 51.5%)" stroke-width="1.5"></path><path d="M1174.33 -68.81L1174.33 -68.81" stroke="hsl(228.5, 77.2%, 51.5%)" stroke-width="1.5"></path><path d="M1174.33 -68.81L1161.5 97.76" stroke="hsl(228.5, 77.2%, 51.5%)" stroke-width="1.5"></path><path d="M1174.33 -68.81L979.96 90.3" stroke="hsl(228.5, 77.2%, 51.5%)" stroke-width="1.5"></path><path d="M1161.5 97.76L1161.5 97.76" stroke="hsl(228.5, 77.2%, 51.5%)" stroke-width="1.5"></path><path d="M1161.5 97.76L1142.25 197.87" stroke="hsl(228.5, 77.2%, 51.5%)" stroke-width="1.5"></path><path d="M1142.25 197.87L1142.25 197.87" stroke="hsl(228.5, 77.2%, 51.5%)" stroke-width="1.5"></path><path d="M1142.25 197.87L1142.31 317.86" stroke="hsl(228.5, 77.2%, 51.5%)" stroke-width="1.5"></path><path d="M1142.31 317.86L1142.31 317.86" stroke="hsl(228.5, 77.2%, 51.5%)" stroke-width="1.5"></path><path d="M1142.31 317.86L1134.57 490.16" stroke="hsl(228.5, 77.2%, 51.5%)" stroke-width="1.5"></path><path d="M1134.57 490.16L1134.57 490.16" stroke="hsl(228.5, 77.2%, 51.5%)" stroke-width="1.5"></path><path d="M1157.79 714.16L1157.79 714.16" stroke="hsl(228.5, 77.2%, 51.5%)" stroke-width="1.5"></path><path d="M1157.79 714.16L983.13 631.02" stroke="hsl(228.5, 77.2%, 51.5%)" stroke-width="1.5"></path><path d="M1157.79 714.16L1029.93 880.6" stroke="hsl(228.5, 77.2%, 51.5%)" stroke-width="1.5"></path><path d="M1157.79 714.16L1134.57 490.16" stroke="hsl(228.5, 77.2%, 51.5%)" stroke-width="1.5"></path><path d="M1136.39 978.96L1136.39 978.96" stroke="hsl(228.5, 77.2%, 51.5%)" stroke-width="1.5"></path><path d="M1178.03 1133.99L1178.03 1133.99" stroke="hsl(228.5, 77.2%, 51.5%)" stroke-width="1.5"></path><path d="M1178.03 1133.99L1136.39 978.96" stroke="hsl(228.5, 77.2%, 51.5%)" stroke-width="1.5"></path><circle r="25" cx="616.54" cy="593.87" fill="url(&quot;#SvgjsRadialGradient1015&quot;)"></circle><circle r="25" cx="894.88" cy="459.88" fill="url(&quot;#SvgjsRadialGradient1015&quot;)"></circle><circle r="25" cx="1044.56" cy="1117.8" fill="url(&quot;#SvgjsRadialGradient1015&quot;)"></circle><circle r="25" cx="1132.24" cy="584.39" fill="url(&quot;#SvgjsRadialGradient1015&quot;)"></circle><circle r="25" cx="1168.19" cy="903.7" fill="url(&quot;#SvgjsRadialGradient1015&quot;)"></circle><circle r="5" cx="76.11" cy="902.49" fill="#8b9ad9"></circle><circle r="5" cx="98.12" cy="1167.18" fill="#8b9ad9"></circle><circle r="5" cx="181.14" cy="906.09" fill="#8b9ad9"></circle><circle r="5" cx="187.88" cy="1010.97" fill="#8b9ad9"></circle><circle r="5" cx="218.77" cy="1153.16" fill="#8b9ad9"></circle><circle r="5" cx="307.14" cy="865.67" fill="#8b9ad9"></circle><circle r="5" cx="355.47" cy="1032.49" fill="#8b9ad9"></circle><circle r="5" cx="363.26" cy="1119.6" fill="#8b9ad9"></circle><circle r="5" cx="458.49" cy="754.57" fill="#8b9ad9"></circle><circle r="5" cx="449.4" cy="905.75" fill="#8b9ad9"></circle><circle r="5" cx="467.35" cy="1009.21" fill="#8b9ad9"></circle><circle r="5" cx="443.32" cy="1155.17" fill="#8b9ad9"></circle><circle r="5" cx="575.3" cy="775.56" fill="#8b9ad9"></circle><circle r="5" cx="584.55" cy="890.28" fill="#8b9ad9"></circle><circle r="5" cx="578.76" cy="1030.29" fill="#8b9ad9"></circle><circle r="5" cx="582.33" cy="1124.42" fill="#8b9ad9"></circle><circle r="5" cx="767.88" cy="218.64" fill="#8b9ad9"></circle><circle r="5" cx="744.6" cy="333.83" fill="#8b9ad9"></circle><circle r="5" cx="763.38" cy="582.98" fill="#8b9ad9"></circle><circle r="5" cx="760.48" cy="742.7" fill="#8b9ad9"></circle><circle r="5" cx="743.41" cy="861.8" fill="#8b9ad9"></circle><circle r="5" cx="718.49" cy="1033.73" fill="#8b9ad9"></circle><circle r="5" cx="756.74" cy="1166.91" fill="#8b9ad9"></circle><circle r="5" cx="846.23" cy="-98.53" fill="#8b9ad9"></circle><circle r="5" cx="903.67" cy="99.58" fill="#8b9ad9"></circle><circle r="5" cx="867" cy="201.91" fill="#8b9ad9"></circle><circle r="5" cx="860.58" cy="325.16" fill="#8b9ad9"></circle><circle r="5" cx="892.63" cy="582.09" fill="#8b9ad9"></circle><circle r="5" cx="909.93" cy="745.44" fill="#8b9ad9"></circle><circle r="5" cx="862.55" cy="845.19" fill="#8b9ad9"></circle><circle r="5" cx="849.73" cy="1041.6" fill="#8b9ad9"></circle><circle r="5" cx="900.85" cy="1132.76" fill="#8b9ad9"></circle><circle r="5" cx="1009.59" cy="-45.52" fill="#8b9ad9"></circle><circle r="5" cx="979.96" cy="90.3" fill="#8b9ad9"></circle><circle r="5" cx="1016.83" cy="224.74" fill="#8b9ad9"></circle><circle r="5" cx="1039.52" cy="486.67" fill="#8b9ad9"></circle><circle r="5" cx="983.13" cy="631.02" fill="#8b9ad9"></circle><circle r="5" cx="1011.37" cy="713.93" fill="#8b9ad9"></circle><circle r="5" cx="1029.93" cy="880.6" fill="#8b9ad9"></circle><circle r="5" cx="1011.57" cy="1046.04" fill="#8b9ad9"></circle><circle r="5" cx="1174.33" cy="-68.81" fill="#8b9ad9"></circle><circle r="5" cx="1161.5" cy="97.76" fill="#8b9ad9"></circle><circle r="5" cx="1142.25" cy="197.87" fill="#8b9ad9"></circle><circle r="5" cx="1142.31" cy="317.86" fill="#8b9ad9"></circle><circle r="5" cx="1134.57" cy="490.16" fill="#8b9ad9"></circle><circle r="5" cx="1157.79" cy="714.16" fill="#8b9ad9"></circle><circle r="5" cx="1136.39" cy="978.96" fill="#8b9ad9"></circle><circle r="5" cx="1178.03" cy="1133.99" fill="#8b9ad9"></circle></g><defs><mask id="SvgjsMask1014"><rect width="960" height="1080" fill="#ffffff"></rect></mask><radialGradient id="SvgjsRadialGradient1015"><stop stop-color="#ffffff" offset="0.1"></stop><stop stop-color="#1735b3" offset="0.2"></stop><stop stop-color="rgba(23, 53, 179, 0)" offset="1"></stop></radialGradient></defs></svg>